<svg width="41" height="36" viewBox="0 0 41 36" fill="none" xmlns="http://www.w3.org/2000/svg"><g clip-path="url(#clip0_1_2)"><path d="M14.9742 8.35559H25.9583L31.4506 17.8682L25.9583 27.3807H14.9742L9.48191 17.8682L14.9742 8.35559Z" stroke="url(#paint0_linear_1_2)" stroke-width="3.34871" stroke-linecap="round" stroke-linejoin="round"></path><path d="M25.9803 8.35855L31.4677 17.8626L25.9803 27.3666H23.8233V33.7615C25.7719 33.76 27.7209 33.7582 29.6694 33.7563L38.8457 17.8629L29.6694 1.96883C27.7209 1.9666 25.7719 1.96511 23.8233 1.96362C23.3832 4.0975 22.9426 6.23137 22.5024 8.36525C23.6618 8.36301 24.8212 8.36078 25.9806 8.35855H25.9803Z" stroke="url(#paint1_linear_1_2)" stroke-width="3.34871" stroke-linecap="round" stroke-linejoin="round"></path><path d="M2.19437 17.8674L11.3706 33.7608C13.3192 33.7623 15.2681 33.7645 17.2167 33.766C17.6639 31.6366 18.1112 29.5075 18.5584 27.3781C17.3741 27.374 16.1901 27.3699 15.0058 27.3662L9.51837 17.8622L15.0058 8.35819H17.2167V1.96848C15.2681 1.96996 13.3192 1.97182 11.3706 1.97331L2.19437 17.8674Z" stroke="url(#paint2_linear_1_2)" stroke-width="3.34871" stroke-linecap="round" stroke-linejoin="round"></path><path d="M14.9771 8.33139H25.9721L31.4696 17.8533L25.9721 27.3751H14.9771L9.47968 17.8533L14.9771 8.33139Z" stroke="url(#paint3_linear_1_2)" stroke-width="3.42313" stroke-linecap="round" stroke-linejoin="round"></path><path d="M23.8233 1.96362C21.621 12.563 19.419 23.1621 17.2167 33.7615Z" fill="url(#paint4_linear_1_2)"></path><path d="M23.8233 1.96362C21.621 12.563 19.419 23.1621 17.2167 33.7615" stroke="#3C3BD3" stroke-width="3.34871" stroke-linecap="round" stroke-linejoin="round"></path></g><defs><linearGradient id="paint0_linear_1_2" x1="29.1526" y1="26.5544" x2="11.7802" y2="9.18161" gradientUnits="userSpaceOnUse"><stop stop-color="#21BAD7"></stop><stop offset="0.21" stop-color="#279BD8"></stop><stop offset="0.75" stop-color="#3652DC"></stop><stop offset="1" stop-color="#3C35DE"></stop></linearGradient><linearGradient id="paint1_linear_1_2" x1="37.3372" y1="28.456" x2="16.1503" y2="7.2691" gradientUnits="userSpaceOnUse"><stop stop-color="#2E9ED7"></stop><stop offset="0.01" stop-color="#2E9CD6"></stop><stop offset="0.69" stop-color="#3852D4"></stop><stop offset="1" stop-color="#3D36D3"></stop></linearGradient><linearGradient id="paint2_linear_1_2" x1="24.8901" y1="28.4609" x2="3.70278" y2="7.27358" gradientUnits="userSpaceOnUse"><stop stop-color="#3D36D3"></stop><stop offset="0.31" stop-color="#3852D4"></stop><stop offset="0.99" stop-color="#2E9CD6"></stop><stop offset="1" stop-color="#2E9ED7"></stop></linearGradient><linearGradient id="paint3_linear_1_2" x1="32.7491" y1="20.239" x2="8.19972" y2="15.4671" gradientUnits="userSpaceOnUse"><stop stop-color="#3083D7"></stop><stop offset="0.23" stop-color="#317CD7"></stop><stop offset="0.35" stop-color="#307AD5"></stop><stop offset="0.39" stop-color="#2E73D1"></stop><stop offset="0.42" stop-color="#2B67C9"></stop><stop offset="0.44" stop-color="#2656BD"></stop><stop offset="0.46" stop-color="#2040AE"></stop><stop offset="0.48" stop-color="#1A2A9F"></stop><stop offset="0.5" stop-color="#1E3AA9"></stop><stop offset="0.55" stop-color="#2656BD"></stop><stop offset="0.6" stop-color="#2C6ACA"></stop><stop offset="0.65" stop-color="#2F76D3"></stop><stop offset="0.7" stop-color="#317BD6"></stop><stop offset="0.85" stop-color="#317CD7"></stop><stop offset="1" stop-color="#3085D7"></stop></linearGradient><linearGradient id="paint4_linear_1_2" x1="17.3134" y1="17.3056" x2="23.8226" y2="18.4363" gradientUnits="userSpaceOnUse"><stop stop-color="#345DDC"></stop><stop offset="0.28" stop-color="#345BDB"></stop><stop offset="0.38" stop-color="#3554DA"></stop><stop offset="0.45" stop-color="#3848D7"></stop><stop offset="0.51" stop-color="#3D36D4"></stop><stop offset="0.52" stop-color="#3C37D4"></stop><stop offset="0.57" stop-color="#3848D7"></stop><stop offset="0.64" stop-color="#3554DA"></stop><stop offset="0.73" stop-color="#345BDB"></stop><stop offset="1" stop-color="#345DDC"></stop></linearGradient><clipPath id="clip0_1_2"><rect width="40" height="35.1514" fill="white" transform="translate(0.520012 0.289276)"></rect></clipPath></defs></svg>